<?xml version="1.0" encoding="utf-8"?>
<!-- Generator: Adobe Illustrator 23.0.1, SVG Export Plug-In . SVG Version: 6.00 Build 0)  -->
<svg version="1.1" id="图层_1" xmlns="http://www.w3.org/2000/svg" xmlns:xlink="http://www.w3.org/1999/xlink" x="0px" y="0px"
	 viewBox="0 0 285.2 56.04" style="enable-background:new 0 0 285.2 56.04;" xml:space="preserve">
<style type="text/css">
	.st0{fill:#4B6FE5;}
	.st1{clip-path:url(#SVGID_2_);fill:#4B6FE5;}
	.st2{clip-path:url(#SVGID_2_);fill:#52D88F;}
	.st3{clip-path:url(#SVGID_2_);fill:#FFFFFF;}
	.st4{fill:#FFFFFF;}
</style>
<g>
	<rect x="246.45" y="1.36" class="st4" width="34.01" height="4.2"/>
	<path class="st4" d="M247.01,30.57v-3.36h4.06v-6.16h3.5v6.16h3.92v3.36h-3.92v5.88l3.78-1.26c0,1.31,0.05,2.52,0.14,3.64
		c-1.03,0.28-2.33,0.7-3.92,1.26v14.14h-5.98l-0.85-3.78l3.34,0v-9.1c-0.65,0.19-1.63,0.51-2.94,0.98
		c-0.56,0.19-0.98,0.33-1.26,0.42l-0.42-3.92c0.37-0.09,1.03-0.28,1.96-0.56c1.21-0.37,2.1-0.65,2.66-0.84v-6.86H247.01z
		 M259.47,26.51v-3.5h20.43v3.5h-9.24c-1.03,3.08-2.57,6.16-4.62,9.24h12.74v18.47h-3.5v-2.38H265.2v2.38h-3.5V41.49l-1.26,1.26
		c-1.03,1.12-1.87,1.96-2.52,2.52c-0.47-0.93-1.07-2.05-1.82-3.36c5.04-4.29,8.58-9.42,10.64-15.4H259.47z M265.2,48.77h10.08v-9.66
		H265.2V48.77z"/>
	<path class="st4" d="M45.79,33.73h-17.9c-2.79,0-5.06-2.26-5.06-5.06c0-2.79,2.26-5.06,5.06-5.06h17.9V33.73z"/>
	<polygon class="st4" points="99.19,1.76 60.81,1.76 60.81,11.81 74.22,11.81 74.22,55.43 85.75,55.43 85.75,11.81 99.19,11.81 	"/>
	<path class="st4" d="M206.69,0.06C189.92-1,176.09,12.82,177.15,29.59c0.87,13.83,12.1,25.05,25.92,25.92
		c16.77,1.06,30.59-12.77,29.53-29.54C231.74,12.15,220.52,0.93,206.69,0.06 M206.64,44.88c-10.87,1.08-19.92-7.98-18.85-18.85
		c0.8-8.04,7.3-14.55,15.34-15.34c10.87-1.08,19.92,7.98,18.85,18.85C221.18,37.58,214.68,44.09,206.64,44.88"/>
	<path class="st4" d="M30.91,11.94h14.86V1.65H30.91c-14.89,0-26.96,12.07-26.96,26.96s12.07,26.96,26.96,26.96h14.86V45.28H30.91
		c-9.21,0-16.67-7.46-16.67-16.67C14.24,19.4,21.7,11.94,30.91,11.94"/>
	<path class="st4" d="M139.46,55.24h-1.83c-12.65,0-22.9-10.25-22.9-22.9V1.76h11.94v30.58c0,6.05,4.91,10.96,10.96,10.96h1.83
		c6.05,0,10.96-4.9,10.96-10.96V1.76h11.94v30.58C162.36,44.99,152.11,55.24,139.46,55.24"/>
</g>
</svg>
