<?xml version="1.0" encoding="UTF-8"?>
<svg width="24px" height="24px" viewBox="0 0 24 24" version="1.1" xmlns="http://www.w3.org/2000/svg" xmlns:xlink="http://www.w3.org/1999/xlink">
    <title>1.通用/2.图标/2.设计/Personnel Control</title>
    <g id="1.通用/2.图标/2.设计/Personnel-Control" stroke="none" stroke-width="1" fill="none" fill-rule="evenodd">
        <path d="M9,1.5 C12.0375661,1.5 14.5,3.96243388 14.5,7 C14.5,9.1133007 13.3081113,10.9482209 11.5598815,11.8692131 C15.2831194,12.9715833 18,16.4185109 18,20.5 C18,20.6771164 17.9948777,20.8536507 17.9846701,21.0294551 C17.9710221,21.2645122 17.7965312,21.4538521 17.5718871,21.4930257 L17.4855108,21.5004728 L0.514489226,21.5004728 C0.249604675,21.5004728 0.0306838447,21.2938943 0.0153299078,21.0294551 C0.00512230479,20.8536507 0,20.6771164 0,20.5 C0,16.4185109 2.71688058,12.9715833 6.44078249,11.8690764 C4.69188867,10.9482209 3.5,9.1133007 3.5,7 C3.5,3.96243388 5.96243388,1.5 9,1.5 Z M9,12.8 C4.91096868,12.8 1.56637629,15.987322 1.31514881,20.0130399 L1.306,20.2 L16.693,20.2 L16.6848512,20.0130399 C16.4386483,16.0678363 13.2215777,12.9278282 9.24442976,12.803806 L9,12.8 Z M17,2.5 C19.209139,2.5 21,4.290861 21,6.5 C21,7.90190344 20.2788062,9.13536303 19.1871896,9.8496077 C21.829855,10.7182138 23.7833672,13.119926 23.9833807,16.0205934 L23.9958523,16.2601827 L23.9990889,16.4923168 C24.0022722,16.7400554 23.824948,16.9476838 23.5897407,16.9907901 L23.4990644,16.999 L18.7111295,16.9996155 C18.5085914,16.9996155 18.3260442,16.8774786 18.2488279,16.6902372 C17.3045776,14.4005307 15.5316104,12.5324651 13.2964274,11.4672983 C12.9421605,11.2984739 12.91158,10.8059949 13.2422397,10.59464 C13.7199926,10.2892643 14.2317125,10.0441284 14.7681212,9.86386139 L14.9988357,9.79284271 C14.9681579,9.6876282 14.971758,9.57183096 15.0164007,9.46312997 C15.3345118,8.6885575 15.5,7.85656397 15.5,7 C15.5,5.86486882 15.2090916,4.77319431 14.6632083,3.80718155 C14.533214,3.57713945 14.6046517,3.28566254 14.8262856,3.14180053 C15.467839,2.72536997 16.2179396,2.5 17,2.5 Z M17.0224597,10.799806 L16.8324895,10.8020484 L16.5453114,10.8181957 C16.1299083,10.8512688 15.7238625,10.9285433 15.3323473,11.0480216 L15.239,11.079 L15.3628887,11.1604508 C16.9851139,12.2676102 18.3008738,13.7844201 19.1647483,15.5581709 L19.23,15.699 L22.643,15.699 L22.6370639,15.6561123 C22.2357787,12.9666643 19.9717991,10.9135698 17.2295944,10.8045562 L17.0224597,10.799806 Z M9,2.8 C6.68040405,2.8 4.8,4.68040405 4.8,7 C4.8,9.31959595 6.68040405,11.2 9,11.2 C11.3195959,11.2 13.2,9.31959595 13.2,7 C13.2,4.68040405 11.3195959,2.8 9,2.8 Z M17,3.8 C16.7371282,3.8 16.4794257,3.83744923 16.2330522,3.91020219 L16.171,3.931 L16.2302382,4.0685453 C16.5639188,4.8907325 16.7545716,5.76595335 16.7928194,6.66275094 L16.8,7 C16.8,7.68116909 16.7124435,8.35271035 16.5402763,9.00180274 L16.497,9.151 L16.5943425,9.16983883 C16.660996,9.17985327 16.728194,9.18739356 16.7958368,9.19243025 L17,9.2 C18.4911688,9.2 19.7,7.99116882 19.7,6.5 C19.7,5.00883118 18.4911688,3.8 17,3.8 Z" id="形状结合" fill="#0A1933" fill-rule="nonzero"></path>
    </g>
</svg>